PathFileType	4	(X/Y/Z)	C:\Users\°ÂÌØÂü\Desktop\20210112\bx_y_0_902-Unnamed.trc
DataRate	CameraRate	NumFrames	NumMarkers	Units	OrigDataRate	OrigDataStartFrame	OrigNumFrames
50.00	50.00	       8	0	mm	50.00	59	       466
Frame#	Time	
		

59	1.160	-681.80133	133.71541	1850.02344	-625.54266	113.76922	1436.05359	-592.76685	0.16407	1046.31140	-579.29333	226.22153	1066.96033	-693.84381	85.12096	572.40717	-724.26251	253.97229	638.42853	-730.24762	249.11357	575.22321	-676.03748	208.94017	531.74030	-770.76447	256.94760	502.33124	-663.34442	-66.20187	164.17526	-716.54022	79.79876	215.23318	-603.17798	20.47432	165.47128	-674.47876	56.89771	155.95255	-711.15466	152.42155	216.23610	-795.90802	172.20782	183.97916	-771.03772	222.32388	205.27205	-594.42139	222.69725	173.31291	-882.55273	296.27115	144.72351	-561.21460	262.17929	165.93250	-667.30365	299.28543	159.80464	-629.92303	307.53384	162.51292	-528.12634	304.18494	146.33830	-698.77100	-65.09708	1544.93872	-790.52313	105.26518	1057.30383	-766.43774	-3.93214	207.76555	-794.37274	56.59369	175.02629	-765.27905	-31.09306	488.12061	-559.18201	-39.51790	163.89745	-876.08337	-78.85376	141.25330	-696.40656	-45.06406	716.34369	-719.78131	-20.48687	566.94019	-674.75623	171.68428	157.03845	-622.40717	-77.23661	159.38016				-637.39880	285.97659	874.05170	-517.59998	-72.82465	142.80583	-586.65698	1.98910	799.71484	-688.50897	277.01794	743.73694	-670.46112	23.32112	519.41125	-729.18024	298.49918	1528.01587	-580.50269	219.60553	810.87909				-690.93494	146.92613	571.69373	-705.94348	-23.84984	614.40741	-656.45691	-63.22985	855.38574	
60	1.180	-681.82373	133.75549	1850.05652	-625.54266	113.76922	1436.05359	-592.61603	0.24033	1046.44421	-579.44293	226.28360	1066.84766	-693.54828	84.87708	572.45978	-724.11731	253.76823	638.35974	-730.28876	249.11757	575.12476	-676.03748	208.94017	531.74030	-770.76447	256.94760	502.33124	-663.36310	-66.01114	164.18427	-716.25763	79.57812	215.36320	-603.10223	20.41656	165.29903	-674.71216	56.60547	155.54741	-711.00934	152.23827	216.44478	-795.90631	172.15268	184.03235	-770.99829	222.20401	205.27310	-594.42114	222.63341	173.43816	-882.70941	296.17542	144.57637	-561.15234	262.24640	166.08430	-667.31830	299.14658	159.66531	-629.90070	307.59818	162.51646	-528.19830	304.30228	146.37737	-698.91248	-65.26913	1545.03308	-790.41962	105.37543	1057.18567	-766.43469	-3.87512	207.83701	-794.24811	56.74147	174.95056	-765.16766	-30.94888	488.11374	-559.08148	-39.66705	164.47623	-875.99139	-78.70409	141.37393	-696.10712	-44.63324	716.09937	-719.68774	-20.32780	566.74640	-674.75623	171.68428	157.03845	-622.40717	-77.23661	159.38016				-637.05774	286.15594	874.40088	-517.59534	-72.73141	142.65703	-586.64008	1.90623	799.72998	-688.41687	276.90634	743.77875	-670.47321	23.41020	519.27197	-729.13318	298.47849	1527.92004	-580.53461	219.70349	810.75165				-690.75482	146.93442	571.85376	-705.91058	-23.83027	614.32483	-656.42450	-63.29014	855.27289	
61	1.200	-681.78333	133.79582	1850.05139	-625.60339	113.82469	1435.94678	-592.61603	0.24033	1046.44421	-579.44293	226.28360	1066.84766	-693.69360	84.97867	572.68988	-724.14099	253.71204	638.37421	-730.28876	249.11757	575.12476	-676.10077	208.91577	531.81097	-770.76447	256.94760	502.33124	-663.31744	-66.03600	164.20590	-716.34973	79.45235	215.38393	-603.15991	20.50066	165.47134	-674.44623	56.89826	156.20003	-710.99628	152.12532	216.54091	-795.99652	172.10645	184.02840	-771.15686	222.19304	205.39308	-594.48499	222.66698	173.38101	-882.65179	296.02704	144.46056	-561.11542	262.26755	166.10487	-667.26563	299.22623	159.53027	-629.92554	307.45251	162.26596	-528.11450	304.37653	146.40186	-698.97327	-65.19920	1545.10522	-790.39056	105.34525	1057.23389	-766.34937	-3.93982	207.63487	-794.33051	56.61320	175.04309	-765.13971	-31.03616	488.03262	-559.02747	-39.64981	164.12547	-875.85522	-78.73365	141.22168	-696.10712	-44.63324	716.09937	-719.61078	-20.26274	566.82855	-674.66156	171.57695	156.62921	-622.32507	-77.36956	159.34827				-637.31561	285.97751	874.20520	-517.67206	-72.82037	142.92558	-586.65698	1.98910	799.71484	-688.27014	276.78949	743.35419	-670.47321	23.41020	519.27197	-729.06989	298.50446	1528.01050	-580.06403	219.65909	811.00842				-690.80872	147.04887	571.44971	-705.86603	-23.65734	614.27740	-656.45691	-63.22985	855.38574	
62	1.220	-681.79730	133.78546	1849.99780	-625.54266	113.76922	1436.05359	-592.76685	0.16407	1046.31140	-579.44293	226.28360	1066.84766	-693.54828	84.87708	572.45978	-724.18268	253.90581	638.55750	-730.24762	249.11357	575.22321	-676.09967	209.02629	531.67731	-770.83252	256.97043	502.29260	-663.39856	-66.19433	163.90695	-716.25763	79.57812	215.36320	-603.20270	20.45327	165.43883	-674.54834	56.68682	155.72682	-711.00934	152.23827	216.44478	-795.90631	172.15268	184.03235	-770.98828	222.39734	205.16841	-594.48499	222.66698	173.38101	-882.71173	296.15213	144.50174	-561.21460	262.17929	165.93250	-667.24640	299.21133	159.58667	-630.00049	307.54239	162.29501	-528.07855	304.32205	146.58138	-699.13763	-65.02972	1544.98572	-790.18030	105.40941	1057.09180	-766.39563	-3.82926	207.72903	-794.31848	56.53719	174.99400	-765.17810	-30.98853	488.03616	-559.08936	-39.40882	164.05484	-875.98248	-78.81853	141.25104	-696.36224	-44.67393	716.25006	-719.68774	-20.32780	566.74640	-674.87714	171.55809	156.79433	-622.36810	-77.20144	159.43637				-637.24237	285.90616	874.10541	-517.72980	-72.69471	142.77153	-586.51733	1.99239	799.84076	-688.27014	276.78949	743.35419	-670.47321	23.41020	519.27197	-729.10809	298.51773	1527.94092	-580.22577	219.73401	810.80646				-690.83923	147.10933	571.03552	-705.77167	-23.51461	614.07855	-656.42450	-63.29014	855.27289	
63	1.240	-681.89948	133.79848	1850.05017	-625.70941	113.54223	1435.86475	-592.81647	0.21326	1046.39124	-579.19708	226.08772	1066.93872	-693.54828	84.87708	572.45978	-724.11200	253.91913	638.35376	-730.24847	248.96397	575.08740	-676.10724	208.85849	531.70813	-770.76447	256.94760	502.33124	-663.18274	-66.01704	164.02583	-716.46277	79.53812	215.49530	-603.02112	20.43509	165.49660	-674.54834	56.68682	155.72682	-711.19220	152.30917	216.26596	-795.90631	172.15268	184.03235	-770.95593	222.28842	205.16910	-594.48499	222.66698	173.38101	-882.62518	296.03879	144.44261	-561.16644	262.23077	166.04240	-667.40125	299.32864	159.53397	-629.90552	307.54636	162.46014	-528.11450	304.37653	146.40186	-699.11896	-64.98655	1545.04309	-790.28705	105.45549	1057.11572	-766.47754	-3.90708	207.69853	-794.23468	56.69133	174.88966	-765.25275	-30.89878	488.02008	-559.08069	-39.37102	163.97945	-876.00970	-78.74700	141.30463	-696.36224	-44.67393	716.25006	-719.71252	-20.36550	566.79956	-674.75623	171.68428	157.03845	-622.40198	-77.13537	159.45935				-637.05658	285.85898	874.19666	-517.72174	-72.61513	142.64165	-586.65698	1.98910	799.71484	-688.11292	276.42459	743.19885	-670.47321	23.41020	519.27197	-729.04651	298.44550	1527.69299	-579.91882	220.02957	810.76099				-690.80872	147.04887	571.44971	-705.78613	-23.74870	614.29639	-656.42450	-63.29014	855.27289	
64	1.260	-681.92645	133.80853	1850.08740	-625.54858	113.76856	1435.85779	-592.76685	0.16407	1046.31140	-579.19708	226.08772	1066.93872	-693.54828	84.87708	572.45978	-724.09741	253.68494	638.10101	-730.17615	248.94580	575.10101	-675.99078	208.97617	531.55902	-770.76447	256.94760	502.33124	-663.39050	-66.11426	163.97240	-716.25763	79.57812	215.36320	-603.10834	20.47869	165.30214	-674.72174	56.73238	155.70648	-711.09863	152.27873	216.36069	-795.90631	172.15268	184.03235	-770.89453	222.47202	205.30763	-594.48499	222.66698	173.38101	-882.55640	296.06802	144.49452	-561.10065	262.15051	166.02182	-667.27649	299.19409	159.58617	-629.98047	307.63623	162.48920	-528.19830	304.30228	146.37737	-699.09186	-64.99261	1544.88403	-790.28705	105.45549	1057.11572	-766.49506	-3.88883	207.82701	-794.36108	56.66460	174.96753	-765.24347	-30.93033	487.95413	-559.16870	-39.52623	164.06320	-875.99139	-78.70409	141.37393	-696.10712	-44.63324	716.09937	-719.61530	-20.39232	566.87390	-674.85333	171.66905	156.89764	-622.35822	-77.30353	159.37196				-637.10620	285.96762	874.08508	-517.64142	-72.96933	142.74449	-586.59564	1.94780	799.67383	-688.27014	276.78949	743.35419	-670.39789	23.53881	519.35962	-728.92340	298.76001	1527.96704	-579.83850	219.65671	810.84467				-690.80872	147.04887	571.44971	-705.91058	-23.83027	614.32483	-656.42450	-63.29014	855.27289	
65	1.280	-681.85944	133.75208	1850.02771	-625.54718	113.81216	1435.76965	-592.61603	0.24033	1046.44421	-579.19708	226.08772	1066.93872	-693.54828	84.87708	572.45978	-724.15283	254.05035	638.64026	-730.24847	248.96397	575.08740	-676.15283	208.96219	531.64136	-770.76447	256.94760	502.33124	-663.29205	-66.20390	164.08745	-716.47540	79.64817	215.33165	-603.02765	20.43673	165.48660	-674.64258	56.81638	155.77316	-711.09863	152.27873	216.36069	-795.90631	172.15268	184.03235	-770.94312	222.15637	205.14989	-594.48499	222.66698	173.38101	-882.47778	296.06058	144.61819	-561.10358	262.16519	166.06924	-667.18408	299.05081	159.67236	-629.99133	307.76962	162.35930	-528.19830	304.30228	146.37737	-699.21082	-64.92208	1544.96863	-790.28705	105.45549	1057.11572	-766.40564	-3.85546	207.69946	-794.18042	56.63483	174.85739	-765.20581	-30.90951	488.05051	-558.97723	-39.54206	164.11046	-876.11761	-78.71095	141.21718	-696.10712	-44.63324	716.09937	-719.75037	-20.33909	566.91656	-675.01636	171.59755	156.62631	-622.40717	-77.23661	159.38016				-637.00830	285.89346	874.21643	-517.66736	-72.72713	142.77681	-586.41626	2.01228	799.94562	-688.11292	276.42459	743.19885	-670.54608	23.35935	519.34235	-728.92206	298.64426	1527.84253	-579.91382	219.55832	810.80347				-690.62854	147.05716	571.60974	-705.86603	-23.65734	614.27740	-656.48291	-63.32191	855.29388	
66	1.300	-681.89941	133.82777	1850.07605	-625.54718	113.81216	1435.76965	-592.76685	0.16407	1046.31140	-579.19708	226.08772	1066.93872	-693.84381	85.12096	572.40717	-723.98315	253.84166	638.25562	-730.21729	248.94980	575.00256	-676.10724	208.85849	531.70813	-770.76447	256.94760	502.33124	-663.50092	-66.05937	164.07350	-716.36237	79.56239	215.22028	-603.10602	20.42420	165.54332	-674.64258	56.81638	155.77316	-711.09863	152.27873	216.36069	-795.94135	172.15439	183.97711	-770.97284	222.40604	205.16177	-594.42139	222.69725	173.31291	-882.60327	296.01657	144.50362	-561.27100	262.34113	165.88972	-667.34967	299.25488	159.59850	-629.90735	307.71341	162.39590	-528.27954	304.45236	146.40370	-699.21082	-64.92208	1544.96863	-790.18030	105.40941	1057.09180	-766.34351	-3.78681	207.57825	-794.28052	56.76315	174.88565	-765.31305	-30.82508	487.96249	-559.11920	-39.36890	164.14452	-875.98627	-78.79044	141.01529	-696.26923	-44.76793	716.29962	-719.67926	-20.34662	567.01947	-674.68549	171.62657	156.83304	-622.48383	-77.10214	159.35526				-636.84247	285.79062	874.06299	-517.77618	-72.50307	142.50648	-586.65698	1.98910	799.71484	-688.11292	276.42459	743.19885	-670.54608	23.35935	519.34235	-728.52820	298.55911	1527.48242	-579.49542	219.49094	810.90686				-690.32202	147.18814	571.52588	-705.86603	-23.65734	614.27740	-656.45691	-63.22985	855.38574	
